<mxfile host="app.diagrams.net" modified="2022-09-07T14:37:40.160Z" agent="5.0 (Macintosh; Intel Mac OS X 10_15_7) AppleWebKit/537.36 (KHTML, like Gecko) Chrome/105.0.0.0 Safari/537.36 Edg/105.0.1343.25" etag="gSOBEugcQFtqkPkgN-GN" version="20.2.4" type="github">
  <diagram id="SbwNafQmzleJ8GYVe91v" name="Page-1">
    <mxGraphModel dx="1362" dy="940" grid="1" gridSize="10" guides="1" tooltips="1" connect="1" arrows="1" fold="1" page="1" pageScale="1" pageWidth="827" pageHeight="1169" math="0" shadow="0">
      <root>
        <mxCell id="0" />
        <mxCell id="1" parent="0" />
        <mxCell id="7OyRO9MHelykM9Re2ESv-42" style="edgeStyle=orthogonalEdgeStyle;rounded=0;orthogonalLoop=1;jettySize=auto;html=1;entryX=0.5;entryY=0;entryDx=0;entryDy=0;exitX=0.5;exitY=1;exitDx=0;exitDy=0;" edge="1" parent="1" source="7OyRO9MHelykM9Re2ESv-2" target="7OyRO9MHelykM9Re2ESv-23">
          <mxGeometry relative="1" as="geometry">
            <Array as="points">
              <mxPoint x="240" y="170" />
              <mxPoint x="400" y="170" />
            </Array>
          </mxGeometry>
        </mxCell>
        <mxCell id="7OyRO9MHelykM9Re2ESv-2" value="iOS Frontend" style="rounded=0;whiteSpace=wrap;html=1;dashed=1;fillColor=none;" vertex="1" parent="1">
          <mxGeometry x="180" y="70" width="120" height="60" as="geometry" />
        </mxCell>
        <mxCell id="7OyRO9MHelykM9Re2ESv-40" style="edgeStyle=orthogonalEdgeStyle;rounded=0;orthogonalLoop=1;jettySize=auto;html=1;entryX=0.5;entryY=0;entryDx=0;entryDy=0;exitX=0.5;exitY=1;exitDx=0;exitDy=0;" edge="1" parent="1" source="7OyRO9MHelykM9Re2ESv-3" target="7OyRO9MHelykM9Re2ESv-23">
          <mxGeometry relative="1" as="geometry" />
        </mxCell>
        <mxCell id="7OyRO9MHelykM9Re2ESv-3" value="Android Frontend" style="rounded=0;whiteSpace=wrap;html=1;dashed=1;fillColor=none;" vertex="1" parent="1">
          <mxGeometry x="340" y="70" width="120" height="60" as="geometry" />
        </mxCell>
        <mxCell id="7OyRO9MHelykM9Re2ESv-41" style="edgeStyle=orthogonalEdgeStyle;rounded=0;orthogonalLoop=1;jettySize=auto;html=1;entryX=0.5;entryY=0;entryDx=0;entryDy=0;exitX=0.5;exitY=1;exitDx=0;exitDy=0;" edge="1" parent="1" source="7OyRO9MHelykM9Re2ESv-4" target="7OyRO9MHelykM9Re2ESv-23">
          <mxGeometry relative="1" as="geometry">
            <Array as="points">
              <mxPoint x="560" y="170" />
              <mxPoint x="400" y="170" />
            </Array>
          </mxGeometry>
        </mxCell>
        <mxCell id="7OyRO9MHelykM9Re2ESv-4" value="Next.js Frontend" style="rounded=0;whiteSpace=wrap;html=1;dashed=1;fillColor=none;" vertex="1" parent="1">
          <mxGeometry x="500" y="70" width="120" height="60" as="geometry" />
        </mxCell>
        <mxCell id="7OyRO9MHelykM9Re2ESv-22" value="Kubernetes (AKS)" style="swimlane;horizontal=0;" vertex="1" parent="1">
          <mxGeometry x="40" y="230" width="1110" height="460" as="geometry">
            <mxRectangle x="40" y="230" width="40" height="130" as="alternateBounds" />
          </mxGeometry>
        </mxCell>
        <mxCell id="7OyRO9MHelykM9Re2ESv-24" style="edgeStyle=orthogonalEdgeStyle;rounded=0;orthogonalLoop=1;jettySize=auto;html=1;entryX=0.5;entryY=0;entryDx=0;entryDy=0;exitX=0;exitY=0.5;exitDx=0;exitDy=0;" edge="1" parent="7OyRO9MHelykM9Re2ESv-22" source="7OyRO9MHelykM9Re2ESv-23" target="7OyRO9MHelykM9Re2ESv-34">
          <mxGeometry relative="1" as="geometry">
            <mxPoint x="195" y="130" as="targetPoint" />
          </mxGeometry>
        </mxCell>
        <mxCell id="7OyRO9MHelykM9Re2ESv-25" style="edgeStyle=orthogonalEdgeStyle;rounded=0;orthogonalLoop=1;jettySize=auto;html=1;entryX=0.5;entryY=0;entryDx=0;entryDy=0;exitX=1;exitY=0.5;exitDx=0;exitDy=0;" edge="1" parent="7OyRO9MHelykM9Re2ESv-22" source="7OyRO9MHelykM9Re2ESv-23" target="7OyRO9MHelykM9Re2ESv-10">
          <mxGeometry relative="1" as="geometry" />
        </mxCell>
        <mxCell id="7OyRO9MHelykM9Re2ESv-23" value="Routing Rules" style="shape=process;whiteSpace=wrap;html=1;backgroundOutline=1;" vertex="1" parent="7OyRO9MHelykM9Re2ESv-22">
          <mxGeometry x="300" y="40" width="120" height="60" as="geometry" />
        </mxCell>
        <mxCell id="7OyRO9MHelykM9Re2ESv-32" style="edgeStyle=orthogonalEdgeStyle;rounded=0;orthogonalLoop=1;jettySize=auto;html=1;exitX=0.5;exitY=1;exitDx=0;exitDy=0;entryX=0.5;entryY=0;entryDx=0;entryDy=0;" edge="1" parent="7OyRO9MHelykM9Re2ESv-22" source="7OyRO9MHelykM9Re2ESv-36" target="7OyRO9MHelykM9Re2ESv-8">
          <mxGeometry relative="1" as="geometry">
            <mxPoint x="360" y="230" as="sourcePoint" />
          </mxGeometry>
        </mxCell>
        <mxCell id="7OyRO9MHelykM9Re2ESv-27" style="edgeStyle=orthogonalEdgeStyle;rounded=0;orthogonalLoop=1;jettySize=auto;html=1;entryX=0.5;entryY=0;entryDx=0;entryDy=0;exitX=0.5;exitY=1;exitDx=0;exitDy=0;" edge="1" parent="7OyRO9MHelykM9Re2ESv-22" source="7OyRO9MHelykM9Re2ESv-34" target="7OyRO9MHelykM9Re2ESv-7">
          <mxGeometry relative="1" as="geometry">
            <mxPoint x="130" y="230" as="sourcePoint" />
          </mxGeometry>
        </mxCell>
        <mxCell id="7OyRO9MHelykM9Re2ESv-10" value="Storage API" style="rounded=0;whiteSpace=wrap;html=1;" vertex="1" parent="7OyRO9MHelykM9Re2ESv-22">
          <mxGeometry x="510" y="180" width="120" height="60" as="geometry" />
        </mxCell>
        <mxCell id="7OyRO9MHelykM9Re2ESv-8" value="Notification" style="rounded=0;whiteSpace=wrap;html=1;" vertex="1" parent="7OyRO9MHelykM9Re2ESv-22">
          <mxGeometry x="300" y="324.5" width="120" height="60" as="geometry" />
        </mxCell>
        <mxCell id="7OyRO9MHelykM9Re2ESv-46" style="edgeStyle=orthogonalEdgeStyle;rounded=0;orthogonalLoop=1;jettySize=auto;html=1;entryX=0;entryY=0.5;entryDx=0;entryDy=0;exitX=1;exitY=0.5;exitDx=0;exitDy=0;" edge="1" parent="7OyRO9MHelykM9Re2ESv-22" source="7OyRO9MHelykM9Re2ESv-7" target="7OyRO9MHelykM9Re2ESv-8">
          <mxGeometry relative="1" as="geometry" />
        </mxCell>
        <mxCell id="7OyRO9MHelykM9Re2ESv-7" value="Auth" style="rounded=0;whiteSpace=wrap;html=1;" vertex="1" parent="7OyRO9MHelykM9Re2ESv-22">
          <mxGeometry x="70" y="325" width="120" height="60" as="geometry" />
        </mxCell>
        <mxCell id="7OyRO9MHelykM9Re2ESv-63" style="edgeStyle=orthogonalEdgeStyle;rounded=0;orthogonalLoop=1;jettySize=auto;html=1;entryX=0.75;entryY=0;entryDx=0;entryDy=0;exitX=0.5;exitY=1;exitDx=0;exitDy=0;" edge="1" parent="7OyRO9MHelykM9Re2ESv-22" source="7OyRO9MHelykM9Re2ESv-36" target="7OyRO9MHelykM9Re2ESv-7">
          <mxGeometry relative="1" as="geometry">
            <Array as="points">
              <mxPoint x="360" y="290" />
              <mxPoint x="160" y="290" />
            </Array>
          </mxGeometry>
        </mxCell>
        <mxCell id="7OyRO9MHelykM9Re2ESv-64" style="edgeStyle=orthogonalEdgeStyle;rounded=0;orthogonalLoop=1;jettySize=auto;html=1;entryX=0;entryY=0.5;entryDx=0;entryDy=0;" edge="1" parent="7OyRO9MHelykM9Re2ESv-22" source="7OyRO9MHelykM9Re2ESv-36" target="7OyRO9MHelykM9Re2ESv-10">
          <mxGeometry relative="1" as="geometry" />
        </mxCell>
        <mxCell id="7OyRO9MHelykM9Re2ESv-87" value="" style="edgeStyle=orthogonalEdgeStyle;rounded=0;orthogonalLoop=1;jettySize=auto;html=1;fontSize=12;fontColor=default;entryX=0.5;entryY=0;entryDx=0;entryDy=0;exitX=0.5;exitY=1;exitDx=0;exitDy=0;" edge="1" parent="7OyRO9MHelykM9Re2ESv-22" source="7OyRO9MHelykM9Re2ESv-36" target="7OyRO9MHelykM9Re2ESv-8">
          <mxGeometry relative="1" as="geometry" />
        </mxCell>
        <mxCell id="7OyRO9MHelykM9Re2ESv-36" value="Backend&lt;br&gt;(Bank API)" style="rounded=0;whiteSpace=wrap;html=1;" vertex="1" parent="7OyRO9MHelykM9Re2ESv-22">
          <mxGeometry x="300" y="180" width="120" height="60" as="geometry" />
        </mxCell>
        <mxCell id="7OyRO9MHelykM9Re2ESv-44" style="edgeStyle=orthogonalEdgeStyle;rounded=0;orthogonalLoop=1;jettySize=auto;html=1;entryX=0;entryY=0.5;entryDx=0;entryDy=0;exitX=1;exitY=0.5;exitDx=0;exitDy=0;" edge="1" parent="7OyRO9MHelykM9Re2ESv-22" source="7OyRO9MHelykM9Re2ESv-34" target="7OyRO9MHelykM9Re2ESv-36">
          <mxGeometry relative="1" as="geometry" />
        </mxCell>
        <mxCell id="7OyRO9MHelykM9Re2ESv-34" value="API Gateway (GraphQL)" style="rounded=0;whiteSpace=wrap;html=1;" vertex="1" parent="7OyRO9MHelykM9Re2ESv-22">
          <mxGeometry x="70" y="180" width="120" height="60" as="geometry" />
        </mxCell>
        <mxCell id="7OyRO9MHelykM9Re2ESv-69" style="edgeStyle=orthogonalEdgeStyle;rounded=0;orthogonalLoop=1;jettySize=auto;html=1;entryX=0.5;entryY=0;entryDx=0;entryDy=0;fontSize=6;exitX=0;exitY=0.5;exitDx=0;exitDy=0;" edge="1" parent="7OyRO9MHelykM9Re2ESv-22" source="7OyRO9MHelykM9Re2ESv-65" target="7OyRO9MHelykM9Re2ESv-67">
          <mxGeometry relative="1" as="geometry">
            <mxPoint x="835" y="210" as="sourcePoint" />
          </mxGeometry>
        </mxCell>
        <mxCell id="7OyRO9MHelykM9Re2ESv-71" style="edgeStyle=orthogonalEdgeStyle;rounded=0;orthogonalLoop=1;jettySize=auto;html=1;entryX=0.5;entryY=0;entryDx=0;entryDy=0;fontSize=6;exitX=0.5;exitY=1;exitDx=0;exitDy=0;" edge="1" parent="7OyRO9MHelykM9Re2ESv-22" source="7OyRO9MHelykM9Re2ESv-65" target="7OyRO9MHelykM9Re2ESv-70">
          <mxGeometry relative="1" as="geometry">
            <mxPoint x="865" y="240" as="sourcePoint" />
          </mxGeometry>
        </mxCell>
        <mxCell id="7OyRO9MHelykM9Re2ESv-73" style="edgeStyle=orthogonalEdgeStyle;rounded=0;orthogonalLoop=1;jettySize=auto;html=1;entryX=0.5;entryY=0;entryDx=0;entryDy=0;fontSize=6;exitX=1;exitY=0.5;exitDx=0;exitDy=0;" edge="1" parent="7OyRO9MHelykM9Re2ESv-22" source="7OyRO9MHelykM9Re2ESv-65" target="7OyRO9MHelykM9Re2ESv-72">
          <mxGeometry relative="1" as="geometry">
            <mxPoint x="895" y="210" as="sourcePoint" />
          </mxGeometry>
        </mxCell>
        <mxCell id="7OyRO9MHelykM9Re2ESv-65" value="Task Scheduler" style="whiteSpace=wrap;html=1;aspect=fixed;" vertex="1" parent="7OyRO9MHelykM9Re2ESv-22">
          <mxGeometry x="835" y="180" width="60" height="60" as="geometry" />
        </mxCell>
        <mxCell id="7OyRO9MHelykM9Re2ESv-67" value="Synchronise&lt;br&gt;BankUserAccounts" style="whiteSpace=wrap;html=1;aspect=fixed;" vertex="1" parent="7OyRO9MHelykM9Re2ESv-22">
          <mxGeometry x="670" y="285.5" width="110" height="110" as="geometry" />
        </mxCell>
        <mxCell id="7OyRO9MHelykM9Re2ESv-70" value="Synchronise&lt;br&gt;Payments" style="whiteSpace=wrap;html=1;aspect=fixed;" vertex="1" parent="7OyRO9MHelykM9Re2ESv-22">
          <mxGeometry x="810" y="285.5" width="110" height="110" as="geometry" />
        </mxCell>
        <mxCell id="7OyRO9MHelykM9Re2ESv-72" value="Synchronise&lt;br&gt;Transactions" style="whiteSpace=wrap;html=1;aspect=fixed;" vertex="1" parent="7OyRO9MHelykM9Re2ESv-22">
          <mxGeometry x="950" y="285.5" width="110" height="110" as="geometry" />
        </mxCell>
        <mxCell id="7OyRO9MHelykM9Re2ESv-82" value="Argo CD" style="whiteSpace=wrap;html=1;aspect=fixed;fontSize=12;" vertex="1" parent="7OyRO9MHelykM9Re2ESv-22">
          <mxGeometry x="720" y="70" width="80" height="80" as="geometry" />
        </mxCell>
        <mxCell id="7OyRO9MHelykM9Re2ESv-86" value="" style="shape=image;verticalLabelPosition=bottom;labelBackgroundColor=default;verticalAlign=top;aspect=fixed;imageAspect=0;image=data:image/png,iVBORw0KGgoAAAANSUhEUgAAAgAAAAIACAYAAAD0eNT6AAAKrWlDQ1BJQ0MgUHJvZmlsZQAASImVlwdQk9kWgO//pzdaQqQTehOkE0BK6AGkd1EJSYBQQggEETuyuAJrQUUElQVZEVBwVaoNsWBbFAs2dEEWFXVdLIiKyvuBIbj75r0378zcOV9Ozj3n3Dv3zJwfAAqNIxKlwnIApAmzxCHeboyo6BgG7ikgABwgARtA5XAzRaygIH+AyKz+u3zoA9CUvmU6Fevf//+vIs/jZ3IBgIIQjudlctMQPo6s11yROAsAVA1i11meJZriSwjTxEiBCPdPceIMj05x/DSj0dM+YSHuCCsBgCdzOOJEAMi6iJ2RzU1E4pA9EDYX8gRChJHfwDktLZ2HMJIXGCI+IoSn4jPjv4uT+LeY8dKYHE6ilGfOMi14D0GmKJWz4v+8jv8taamS2Rz6yCIniX1CEE1H7uxeSrqflIXxAYGzLOBN+09zksQnfJa5me4xs8zjePhJ96YG+M9ygsCLLY2TxQ6bZX6mZ+gsi9NDpLkSxO6sWeaI5/JKUsKl9iQ+Wxo/NykscpazBREBs5yZEuo35+MutYslIdL6+UJvt7m8XtKzp2V+d14BW7o3KynMR3p2zlz9fCFrLmZmlLQ2Ht/Dc84nXOovynKT5hKlBkn9+aneUntmdqh0bxbyIOf2BknvMJnjGzTLwA3wgRAEAwbwBpHAEtgBW6T/QBY/Z+qNAvd00QqxIDEpi8FCuozPYAu5ZvMZluaWlgBM9ezMk3h3b7oXITp+ziY+AYC9BQJX52zLdABoj0fa79ycTXccAArSv52VXIk4e8Y21U4AA4hAFtCAMtAAOsAQmCLV2QJH4Ao8gS8IBGEgGiwFXJAE0oAYLAerwHpQAIrAVrATlINKsB8cBIfBUdAKToKz4CK4Cm6AO+AhGADD4CUYBR/ABARBOIgCUSFlSBPSg0wgS4gJOUOekD8UAkVDcVAiJIQk0CpoA1QElUDlUBVUB/0KtUNnoctQL3QfGoRGoLfQZxgFk2EarA7rwwtgJsyC/eAweAmcCGfAuXA+vBkug6vhQ3ALfBa+Ct+BB+CX8BgKoEgoOkoLZYpiotxRgagYVAJKjFqDKkSVoqpRjagOVDfqFmoA9Qr1CY1FU9EMtCnaEe2DDkdz0RnoNehidDn6ILoFfR59Cz2IHkV/w1AwahgTjAOGjYnCJGKWYwowpZgDmGbMBcwdzDDmAxaLpWMNsHZYH2w0Nhm7EluM3YttwnZie7FD2DEcDqeMM8E54QJxHFwWrgC3G3cIdwZ3EzeM+4gn4TXxlngvfAxeiM/Dl+Lr8afxN/HP8BMEOYIewYEQSOARVhC2EGoIHYTrhGHCBFGeaEB0IoYRk4nriWXERuIFYj/xHYlE0ibZk4JJAtI6UhnpCOkSaZD0iaxANia7k2PJEvJmci25k3yf/I5CoehTXCkxlCzKZkod5RzlMeWjDFXGTIYtw5NZK1Mh0yJzU+a1LEFWT5Ylu1Q2V7ZU9pjsddlXcgQ5fTl3OY7cGrkKuXa5u3Jj8lR5C/lA+TT5Yvl6+cvyzxVwCvoKngo8hXyF/QrnFIaoKKoO1Z3KpW6g1lAvUIdpWJoBjU1LphXRDtN6aKOKCorWihGKOYoViqcUB+gouj6dTU+lb6EfpffRP89Tn8eax5+3aV7jvJvzxpVUlVyV+EqFSk1Kd5Q+KzOUPZVTlLcptyo/UkGrGKsEqyxX2adyQeWVKk3VUZWrWqh6VPWBGqxmrBaitlJtv9o1tTF1DXVvdZH6bvVz6q806BquGskaOzROa4xoUjWdNQWaOzTPaL5gKDJYjFRGGeM8Y1RLTctHS6JVpdWjNaFtoB2unafdpP1Ih6jD1EnQ2aHTpTOqq6m7SHeVboPuAz2CHlMvSW+XXrfeuL6BfqT+Rv1W/ecGSgZsg1yDBoN+Q4qhi2GGYbXhbSOsEdMoxWiv0Q1j2NjGOMm4wvi6CWxiayIw2WvSOx8z336+cH71/LumZFOWabZpg+mgGd3M3yzPrNXs9QLdBTELti3oXvDN3MY81bzG/KGFgoWvRZ5Fh8VbS2NLrmWF5W0ripWX1VqrNqs31ibWfOt91vdsqDaLbDbadNl8tbWzFds22o7Y6drF2e2xu8ukMYOYxcxL9hh7N/u19iftPznYOmQ5HHX4y9HUMcWx3vH5QoOF/IU1C4ectJ04TlVOA84M5zjnn50HXLRcOC7VLk9cdVx5rgdcn7GMWMmsQ6zXbuZuYrdmt3F3B/fV7p0eKA9vj0KPHk8Fz3DPcs/HXtpeiV4NXqPeNt4rvTt9MD5+Ptt87rLV2Vx2HXvU1853te95P7JfqF+53xN/Y3+xf8cieJHvou2L+gP0AoQBrYEgkB24PfBRkEFQRtCJYGxwUHBF8NMQi5BVId2h1NBlofWhH8LcwraEPQw3DJeEd0XIRsRG1EWMR3pElkQORC2IWh11NVolWhDdFoOLiYg5EDO22HPxzsXDsTaxBbF9SwyW5Cy5vFRlaerSU8tkl3GWHYvDxEXG1cd94QRyqjlj8ez4PfGjXHfuLu5LnitvB2+E78Qv4T9LcEooSXie6JS4PXEkySWpNOmVwF1QLniT7JNcmTyeEphSmzKZGpnalIZPi0trFyoIU4Tn0zXSc9J7RSaiAtFAhkPGzoxRsZ/4QCaUuSSzLYuGDEfXJIaSHySD2c7ZFdkfl0csP5YjnyPMubbCeMWmFc9yvXJ/WYleyV3ZtUpr1fpVg6tZq6vWQGvi13St1Vmbv3Z4nfe6g+uJ61PW/5ZnnleS935D5IaOfPX8dflDP3j/0FAgUyAuuLvRcWPlj+gfBT/2bLLatHvTt0Je4ZUi86LSoi/F3OIrP1n8VPbT5OaEzT1bbLfs24rdKtzat81l28ES+ZLckqHti7a37GDsKNzxfueynZdLrUsrdxF3SXYNlPmXte3W3b1195fypPI7FW4VTXvU9mzaM76Xt/fmPtd9jZXqlUWVn38W/HyvyruqpVq/unQ/dn/2/qc1ETXdvzB/qTugcqDowNdaYe3AwZCD5+vs6urq1eq3NMANkoaRQ7GHbhz2ONzWaNpY1URvKjoCjkiOvPg17te+o35Hu44xjzUe1zu+p5naXNgCtaxoGW1Nah1oi27rbfdt7+pw7Gg+YXai9qTWyYpTiqe2nCaezj89eSb3zFinqPPV2cSzQ13Luh6eizp3+3zw+Z4LfhcuXfS6eK6b1X3mktOlk5cdLrdfYV5pvWp7teWazbXm32x+a+6x7Wm5bne97Yb9jY7ehb2nb7rcPHvL49bF2+zbV+8E3OntC++7dzf27sA93r3n91Pvv3mQ/WDi4bp+TH/hI7lHpY/VHlf/bvR704DtwKlBj8FrT0KfPBziDr38I/OPL8P5TylPS59pPqt7bvn85IjXyI0Xi18MvxS9nHhV8Kf8n3teG74+/pfrX9dGo0aH34jfTL4tfqf8rva99fuusaCxxx/SPkyMF35U/njwE/NT9+fIz88mln/BfSn7avS145vft/7JtMlJEUfMmR4FUMiCExIAeFuLzAnRAFBvAEBcPDNTTws08x0wTeA/8czcPS22ANQhamr08u8EoArReoimuAIQhKwwVwBbWUnX7Pw7PatPCaEXgJw+xM+zt7ZjHfiHzMzx39X9Tw2molqDf+p/ASf3Bq2qCakTAAAAOGVYSWZNTQAqAAAACAABh2kABAAAAAEAAAAaAAAAAAACoAIABAAAAAEAAAIAoAMABAAAAAEAAAIAAAAAACgwl78AAD+eSURBVHgB7d0H3CRVne5xwgBDTpLTIEr0YgBJshgAI4oBM66o6CogKoY1Xha4RtZwFV1RryhgwgDmgMCIg5IlSc5BJOeBIe0+D0zd6ben++1UVSf9zufzfztVnzrnW6frnLfiIouQEEAAAQQQQAABBBBAAAEEEEAAAQQQQAABBBBAAAEEEEAAAQQQQAABBBBAAAEEEEAAAQQQQAABBBBAAAEEEEAAAQQQQAABBBBAAAEEEEAAAQQQQAABBBBAAAEEEEAAAQQQQAABBBBAAAEEEEAAAQQQQAABBBBAAAEEEEAAAQQQQAABBBBAAAEEEEAAAQQQQAABBBBAAAEEEEAAAQQQQAABBBBAAAEEEEAAAQQQQAABBBBAAAEEEEAAAQQQQAABBBBAAAEEEEAAAQQQQAABBBBAAAEEEEAAAQQQQAABBBBAAAEEEEAAAQQQQAABBBBAAAEEEEAAAQQQQAABBBBAAAEEEEAAAQQQQAABBBBAAAEEEEAAAQQQaFZg0WazJ3cEEAgksJjmu7RimT6xlN5/SPHgEDFv/jSe/r8VJAQQyECAAUAGC5EqZC2wuGq3umIdxdo9YiW9V3XynR3+TL3fRPIg4G7FTfPj5gGPc/U5CQEEIhRgABDhQqFIxQj497e+YjNFvw5+DX3mQUCq6T4V3IMFDxRuVFyuuERx6fxHv09CAIEAAgwAAqAzyyIF1lOtt+iKzfV6uSI1FlT6Tj2tBgOdA4PL9P79CybjGQII1C3AAKBuUfIrXcD/yffq6FcoHWbE+vtYg+sUFynOVJyuOE3hrQkkBBCoQYABQA2IZFGswLKq+baKHefHM/XoffKk5gSuVdYeCFQDgrP0nOMMmvMm54wFGABkvHCpWu0CPhiv6uz9+HTFjNrnQoajCDyiiS9QdA4KLtTrR0fJhGkRKFGAAUCJS506DyuwsSbs7PCfPOwXmS6ogM9SOEnxh/lxedDSMHMEIhVgABDpgqFYQQTW1VxfqthV8SyF/+MnpS9wlapQDQZO1HMfeEhCoHgBBgDFN4GiAdz+t1K403d4kz4pbwHvMjhDUQ0IvOvg4byrTO0Q6C3AAKC3C+/mK7C0qrazwh3+boq1FaRyBby7wFsFfq04VnGbgoRAEQIMAIpYzMVXck0JuLN/mcKd/zIKEgLdAt4ScILiR4rjFHcoSAhkK8AAINtFW3zFniSB1ync6W+toK0LgTS0wEOa8niFBwM/V9ylICGQlQArxawWZ/GV8cV2XqPYS+GD+EgI1CHgmyH9XnGM4heKexQkBBBAAIHAAr7r3S6KoxVzFb6CHIFBU23Alyf+meK1Ct9RkYRAsgJsAUh20RVfcJ+T/2bFvyp8nX0SAm0L+IDBIxXfUFzc9syZHwIIIFCSgDfx762Yo2jqPzzyxXacNvAntck3KNgqIAQSAgggUJfA85QRm/jpmMfpmNv+zq1qq59XbFJX4ycfBBBAoDSBJVXhNyvOVbS9Emd+mNfRBmar7b5ewVYBIZDiE+AYgPiWSeklWkUA71Tsp1irdAzqn4WAjxX4juIwxdUKEgIIIIBAh4AP6vuq4j5FHf99kQeOsbUBX1vgKMVTFCQEEECgeIGdJOCrrvka7bGtsCkPy6SJNvCo2rqvJ7C9goQAAggUJTBDtfW+Ud+UpYkVLHnimkob8NkDL1SQEEAAgawFZqp271Ncq0hlBU05WVZttIG/6Tfhiwv5wlYkBBBAIBsB/8f/dsX1ijZWpswD51TbwGXzfyucOSAIEgIIpCvgs0z8X82lilRXyJSbZReiDdyg34zPhvHgmYQAAggkJfAildabNUOsPJkn7rm0AV9i+BVJ/fIpLAIIFCvgu/CdrMhlBUw9WJYxtIE5+k3tUOxahYojgEDUAk9V6X6liGFlSRlYDrm2gZ/qN7Zx1GsCCocAAsUIPEk1/b7C5zbnutKlXizbmNqALyj0NcUaChICYwssPvY3+WLpAssL4DOKIxX+75/LSguBhEALAj5V8JkKHyS4hOJMhQcFJAQQQKBxgddoDj5KOab/iigLy6PUNnCjfot7KxiEC4E0vAANZngrpnx836NvaLIrGAggEJ3AX1Sif1NcEF3JKFCUAgwAolws0RVqaZXoo4oPKrhASXSL57EC+V4KczvCN1Xq99qf3a/wLkDfdtnLtPOx83n1md/zbp/VFSsrSHEKPKxifUFxkMLLn4RAXwEGAH1p+GC+wEv0+BXFhogEEXhQc/2n4h8dcWPH8+r92/VeW8mDgdUUPgjNA4Lux+q9NfWZg9S+wNWapW+p/ev2Z80cUxFgAJDKkmq/nOtrlv9X8fL2Z13cHB9QjS9R/F3hzbcXKq5WuHO/VeF926mmZVXwjRWbzI/quR+9RYHUrMBPlP17FG5LJASmCDAAmMLBCwn4qOIDFJ9QeOVNqk/A/81XHb07+yqu0HNvwi8tra0KVwMCDxCeodhaQbsTQo3pHuX1McVXFT5dl4TAYwIMAGgInQI76MU3FZt3vsnzsQTcoZ+jOGV+nKfHyxXeR0vqL+DjEtz+tp0f2+hxCwWnLAthwuTTBX3q4FkT5sPXMxFgAJDJgpywGv6v/0DFhxWsaMfDvFdfO1XhDt+XbfVzv0eaXMBbBLZSeFDgAYEf11OQRhfwwNTH9HxUcf/oX+cbCCCQk8Cmqoz/Myj1HOpx6+19qsco9le4c2LgJIQWk69AuY/iOMVdinGXY6nf8+6npylICCBQqMC+qvdcRakrwVHq7f33Jyh8QJU7H1I8AjNUlGcpDlL8VeHdLKMs21KnnSenDyjYEiwEEgKlCKyliv5WUeqKb9h6+9S67ylep1hRQUpDYCUV81WKwxVXK4Zd3qVO54HtugoSAghkLvBK1a86tazUFd509b5MPr6QynMU/s+SlL6Ad9F8VnGlYrplX/JnHuzuoSAhgECGAj7n+tuKkldy/eruA/Y+pNhMQcpb4Jmq3qGKqxX92kPJ7x8hF67PIAQSArkIeP8o//1MXeFfJ5NPKXz+OalMAZ9N8HnFtYqSO/3uul8hj+0VJAQQSFjAR6Z/UsFBUY+v4H3Ao/fp76rwLVVJCFjAB8H5GhiHKe5UdHeIJb72OuNABWe3CIGEQGoCT1CBT1SUuPLqrvMcOeytWEFBQmA6gWX04VsU3i3U3Y5KfD1bDqsrSAggkIiAL6l6jaLEFVZVZ9f/EMWTFCQExhHwefL/pbhbUbWrEh+9u2wbBQkBBCIXeJPK5yt8lbiicp1PUuym8GZdEgJ1CCynTN6uKPmCWb5h1dvqwCQPBBCoX8CnrPnufSV2/L5Iz9EKb/kgIdCkgE8p9P0ySh1kf111X7JJYPJGAIHRBFbT5LMVpXX+d6jOn1NwERMhkFoVWENz+7SixIMG/6J6r92qNjNDAIGeAlvr3dJOY/Ipjb4krzfNkhAIKeADS30TrX8qShqA36j67qggIYBAIIG9NN+SNkWepvr6amWcmiQEUlQCM1WadylKut6Gd735fiIkBBBoUWAJzesrilL+4zhHdX1pi77MCoFxBTw4fYPiPEUpv8/vqK4eAJEQQKBhAZ/ff7KihJXLJarnaxUc0S8EUnICL1GJSzlzwNdN8LqJhAACDQnMUr7uFHPv/K9WHd+iYFO/EEhJC3jw6rtJ+vK6uf9uvW7aUEFCAIGaBbZUfv9Q5LwS8YFF+yk4zUgIpKwEvNtuf8XNitx/w0/PaslRGQQCCzxb88/5dKPbVD/fjc+XYSUhkLOAzxo4RHGfIteBgK+c6PttkBBAYEKBV+n7vgpXjisL33Dky4qVFCQEShJYS5U9XOHfQI6/bZ8hsKeChAACYwrso+89oshxBeEDGb1bg4RAyQKbqvLHKnL8jT+qennLHgkBBEYU8GbCHFcKPo7hjSNaMDkCuQu8QBXM9UBBX6Kc22/n3oKpXy0CPvLd1xrPrfP3JsH/VCyvICGAwMICS+utTyn8W8nt93+M6rSUgoQAAn0EvAL4uSK3H/8JqtNmferM2wggMFVgC72co8htPTBbdfJBkCQEEOgSWFmvc/vRX6c6vbqrnrxEAIHBAr5+gG9BfLsip4GALxjEIEAIJAQqgVX1JLdLh35bdeKHXi1hHhEYT2B1fe17ipwGAX9VfVg3jNce+FZmAv7P/2xFLj9wX8xnt8yWEdVBILSAz6u/XJHLeoJBQOgWxfyDC6yoEpyhyOVH/UPVxVszSAggUL/AssrS1w7IZX3xF9WFg4LrbyfkmICAG75HwTn8mG9VPV6TgDlFRCAHgZepErlcUphBQA4tkjqMJOCRfC4H/P1CdVlzpNozMQIITCqwhjL4jSKHfyBOUT3YEjBpi+D7SQj4evezFan/cH1vgr0UJAQQCCewr2Y9V5H6+oRBQLg2xJxbEpip+fxRkfqP1Zvt1mvJjNkggMD0Ar7GRg4HEnur6HLTV5VPEUhTYCkV+3eK1Dt/X9ZziTQXAaVGIFsB/yY/o0j93iF/Vh0YBGTbTMus2JKq9i8VKXf+96j8ry1z8VFrBJIReK5KmvoBgserDvyTkUyTo6DTCczQh6nf7etC1YFL+U63lPkMgXgEvHsu9dOLj1IdfDVEEgLJCrgBf1+R8n/+P1D52SSXbBOk4IUK+Hij7yhSXvd4lwYJgWQFPqWSp/oD9B3J9k9WnoIjgIAF9lM8pEh1PeTykxBITmBvlTjVH51v4rN9cuIUGAEEegnspDdvUqS4PvJBja/qVSneQyBWgV1VsFRH3T4VZ7VYYSkXAgiMJbCuvnW6IsVBwP0q945j1ZovIdCywFM0v7sUKf7QfqRye98hCQEE8hPwqci+S2eK66bbVe7N81sk1CgngbVUmWsVKf7AfMANR93m1BqpCwK9BQ7Q248qUltPXaMyr927SryLQFgBX9//LEVqPyrvqnhHWDrmjgACLQv4mh7zFKmtr85VmVdo2YrZITCtwOL6NMUL/dytcr9w2prxIQII5CrwXFUsxd2VJ6jcXCgo11aZYL2+ojKnNpK+XmV+aoLWFBkBBOoT2FJZ3aBIbf11WH0E5ITA+ALv1VdT+/GcozKvM36V+SYCCGQksIHqcpEitfXYXhktA6qSoMDLVebUbr7xW5WZe28n2NgoMgINCqyivE9RpDQI8OmBWzdoQtYI9BXYUJ/cq0jpB/NTlZd9Z30XKR8gULTA0qr9cYqU1mk+64rrlhTdbMNU/g+J/VB8TX/fmIiEAAII9BPwAc3fUKQ0CDhJ5WXd1m+J8n7tAm9Wjin9QI5Uef3DJiGAAAKDBHw9kK8pUlrHfWlQpfgcgToEFlMmVylS+XF8S2V1mUkIIIDAsAIpDgL2HLZyTIfAuAIv0BdT6fy/qrL6h0xCAAEERhVIbRAwVxV8+qiVZHoERhH4mSZOYQDwxVEqxbQIIIBAD4HUBgFXqw6r9qgHbyEwsYB/DPcoYh8A+Lr+JAQQQKAOgdQGAX9UpTnmqY4lTx5TBJ6sV7F3/gdPKTEvEEAAgckFUhsEfHzyKpMDAlMFXqOXMQ8A2Ow/dXnxCgEE6hNIaRDgm5xtU1/VyQmBRRbZXwixDgCOVtn8AyUhgAACTQl4HZPKdQIuU1l9l1YSArUI7KdcYhwA+PK+XOGvlkVMJgggMEDA+9ePVcS4Luwuk0+DJiFQi8C7lEt3Awv9+lSViVFuLYuXTBBAYEgBXzZ4jiL0+m+Y+b9iyDoxGQLTCsR2DMCFKi2nvEy7yPgQAQQaEvANhLwOGqYTDjnNrSrj2g0ZkG1BArNU15ANuXPe16ks6xVkT1URQCA+gfVVpBsUneumGJ/73i0cIxVf+0muRDdH0NhvUxk2S06OAiOAQI4CW6pSdypi7Pg7y/S+HPGpU7sCvqteZ6Nq+/l9mv927VaZuSGAAALTCjxXn85TtL0+HGV+D6h8HqyQEBhbwA19lEZX57SPaN4vGbvkfBEBBBBoTuC1yvpRRZ3rvLrzOl/lm9kcATmXIHCJKll3wxwmv/eWgEsdEUAgWQFvZh9mXRZyms8nq0vBoxB4U4BG7otvkBBAAIHYBb6tAobs4AfN+2GV7xmxI1K+uAWOU/EGNbS6Pj9R8+JCP3G3B0qHAAKPCyylhzMUda3/msjH5eOGQY8vL/6OIbC6vtPGGQHe3bDyGOXjKwgggEAoAZ+i3Mb6cZLBwXtC4TDfPAS8Gel2xSSNcLrvXqG8182DiloggEBhAj5g2pvbp1vHhfzsbpWN9WthjbLu6jY1CLhKBfVFNkgIIIBAqgLvV8FDdvKD5u17GpAQmEhgc337LMWgxjbs579TXly6cqJFwpcRQCASgdDXThm03t09EieKkbDADJX9Y4pJLoZxl76/d8IGFB0BBBDoFvDNys5TDOqIQ31+rcq2XHeheY3AOALebH+wwtfqH7ZBX6Rp91esqCAhgAACuQlspArdoRh2ndj2dF/MDXyY+nBzhGGUxpvGp5jspPAxAr785KYKbyXw1fweUrjTP1Ph01G8+4CEAAII5CzwElXuV5FW0OvlbRRnR1o+ioUAAggggEDSAl9W6dv+737Y+XFtgKSbFoVHAAEEEIhZwNfh9/X4h+2U255u35jxKBsCCCCAAAIpC3iXqO/M13bnPsz8fPGi5VPGHaXsXApxFC2mRQABBBCYVOAmZXCv4oWTZtTA95dVnr540UkN5E2WCCCAAAIIFC/gA9B/rxjmv/K2p/HgZK3ilxAACCCAAAIINCTgTvYWRdsd/DDz+3pDdSZbBBBAAAEEEJCAr8I3TIfc9jQ+VXsTlhACCCCAAAIINCdwuLJuu4MfZn4/a67K5IwAAggggAACy4jgUsUwnXLb0+zA4kEAAQQQQACB5gSep6zb7tyHmd+c5qpMzggggAACCCBggSMVw3TKbU/j4xRICCCAAAIIINCQwGrK9zZF2x38oPldqDJlec2cLCvVUOMkWwQQQACB5gTmKutbFbH9x+2ByfUKbhQkBBICCCCAAAJNCPgCQX9SDPqvvO3Pr1OZlmiiwuSJAAIIIIAAAo8LbKaHeYq2O/lB83srCwgBBBBAAAEEmhU4WNkP6pDb/vxilWmxZqtN7ggggAACCJQt4NsGx3htgD3KXizUHgEEEEAAgeYFdtYs2v4vf9D8zmy+2swBAQQQQAABBHw53kGdctufP5/FggACCCCAAALNCviGPL4xT9ud/HTzO6nZKpM7AggggAACCFjgvxTTdcghPtuORYMAAggggAACzQqsqezvVYTo6PvN8+fNVpncEUAAAQQQQMACByn6dcYh3n9U5dnCBSMhgAACCCCAQHMCyynrmxQhOvt+8zyqueqSMwIIIIAAAghUAvvoSb/OOMT7PjhxVlU4HhFAAAEEEECgGYEZyja2iwN9oZmqkisCCCCAAAIIdAr4Snwh/tvvN0/fvXCpzgLyHAEEEEAAAQSaEThV2fbrkEO8/8ZmqkmuCCCAAAIIINAp8AK9CNHR95unb19MQgABBBBAAIEWBM7WPPp1yCHe37SFOtc+i8Vrz5EMEUAAAQQQaFbgDmX/6mZnMVLuPiPg9yN9g4kRQAABBBBAYGSBxfSNyxQh/tvvNc8kDwZkC8DI7Y4vIIAAAggEFnAn/IDipYHLUc1+GT25WHF+9QaPCCCAAAIIINCMgE+/u0HR6z/yEO9xMGAzy5lcEUAAAQQQWEjgA3onRGffb55JHgy4kCpvIIAAAgggELmA7xFwu6Jfh9z2+1wZMPIGQ/EQQAABBPIROERVabuj7ze/JA8GzKcpUBMEEEAAgZIEnqDK3qfo1ym3/f7rUsHnLIBUlhTlRAABBBDoJTBXb66n2LrXhwHeW0Lz/GGA+TJLBBBAAAEEihN4mmrc9n/6/eZ3v8qyfHFLgAojgAACCCAQSOA0zbdfp9z2+0ncIIhdAIFaKrNFAAEEEKhVwJ38y2rNcfzM3LeyG2B8P76JAAIIIIDA0ALLasq7FG3/t99rfr5K4QpDlzzQhGwBCATPbBFAAAEEahXwDXk2UMRwMOAMlePvCi4NLAQSAggggAACTQvEdDDgz5uuLPkjgAACCCCAwAKB0/W012b5tt+LfjcAuwAWNBqeIYAAAgikL+COPoaDAb0b4ELFeemTUgMEEEAAAQTiF/DBgHcr2v6Pv9f8fhE/FyVEAAEEEEAgH4Gvqyq9OuS234t6N8Bi+SxvaoIAAggggMBjAkdH4rCUyrF7JGWhGAgggAACCGQvsKhqeL2i7f/4e83vJ7FqswUg1iVDuRBAAAEExhVwRxxLx/s8lYUD7sddknwPAQQQQACBEQV20PS9/iMP8d62I5a9lcnZAtAKMzNBAAEEEGhZ4K+an3cDxJCeH0MhusvAAKBbhNcIIIAAAjkI+D/9H0dSkSgHAJHYUAwEEEAAAQRqF9hOOYbY5N89T9+nYPnaa0eGCCCAAAIIINBTwGcDXKPo7pBDvI7h6oRTkNgFMIWDFwgggAACGQm4o2c3QEYLlKoggAACCCAwrMA2mjDEf/zd87x02AIzHQIIIIAAAgjUI3C1sunukEO8nlVPderJhV0A9TiSCwIIIIBAvAK/j6Rou0ZSjseKwQAgpqVBWRBAAAEEmhA4volMx8iT0wHHQOMrCCCAAAIIjCuwsr74iCLEZv/Oed6uMkTzj3c0BRl3qfI9BBBAAAEEBgjcoc/PGjBNGx97IPKUNmY0zDwYAAyjxDQIIIAAAqkLxLIb4JmxQKY2APBFHTZSeAQ1IxZEyoEAAgggEL3AHyIpYTQDgEg8BhbjrZpijuJuRbU/5QE99yadTyiWVJAQQAABBBDoJ+B+4l5F1YeEejy7XwF5f6rAunr5W8WgBXWupnnG1K/yCgEEEEAAgSkCv9arQf1J05/7vgAzp5SKFwsJ7Kh37lQMuzCM+paFcuENBBBAAAEEHhd4rx6G7VOanG57Fkh/AXf+94yxoB7Vd7y7gIQAAggggEC3wBZ6o8mOfdi89+8uGK8fFxi386/gGQTQkhBAAAEE+gncqA+q/iLU41H9Clfy+5N2/tXCZBBQciui7ggggEB/gWP1UdVXhHq8pH/xyvykrs6/WqAMAspsR9QaAQQQmE7gI/qw6idCPbp/Wmm6Qpb0Wd2df7VQGQSU1IqoKwIIIDBYYGdNUvURIR93GVzU/KdoqvOvFiyDgPzbEDVEAAEEhhVYURO6X6j6iFCP3hJRdGq6868WLIOAopsZlUcAAQSmCFykV1X/EOrxZ1NKVNiLtjr/auEyCCisgVFdBBBAoI/Ad/V+1TeEery8T9myf7vtzr9awAwCsm9aVBABBBAYKLCvpqj6hVCPD6sMxV3GPlTnXy1kBgEDfxtMgAACCGQt4BvyVH1CyMdNs1buqlzozr9a0AwCuhYMLxFAAIGCBPyf9zxF1SeEety9FPNYOv9qQTMIKKXlUU8EEEBgYYHT9FbVH4R6/ODCxWrvncVampU7f9/Vb7mW5jfMbBbVRN9ScO+AYbSYBgEEEMhL4IwIqrNxBGVotAix/effPdJjS0Cji5/MEUAAgSgF9lGpuvuDtl+fHKVMTYWKvfOvFjaDgJoWONkggAACiQjsqnJWfUCox38mYjVyMVPp/KsFzyBg5EXMFxBAAIFkBTZQyav1f8hHX5kwq5Ra518tfAYBWTVDKoMAAgj0FfAxcPcrqvV/qEefkphNSrXzrxY+g4BsmiIVQQABBKYVuECfVuv+UI9vnLaEDX5Y91kA7vxjO9p/VD7ODhhVjOkRQACBNAUujaDYwc4EqHMAkEPnX7UFBgGVBI8IIIBAvgKXRVC1TSIow0RFSH2zf79NP+wOmKhZ8GUEEEAgaoG3qXT91v9tvX9q1EIDCpdr518tfAYBAxoAHyOAAAKJCvyLyl2t60M9Xpmo3SK5d/5Vg2AQkGoLpdwIIIBAf4E19VG1ng/1eG//4sX7SSmdf9UoGATE2xYpGQIIIDCuwN36YrWeD/W47LiFD/G90jr/qlEwCAjR2pgnAggg0JxADKcCbthc9erNudTOn0FAve2I3BBAAIEYBE5QIar1e6jHbUNAjHoaoDv/1M/zn9SZUwQnFeT7CCCAQDwCMVyPf40QHKMMAOj8FywhBgELLHiGAAIIpCxwUwSFXz1EGYYdAND5L7x0GAQsbMI7CCCAQGoCDACmWWJ0/v1xGAT0t+ETBBBAIAWBGHYBRLkFgM5/cPNlEDDYiCkQQACBWAVi2AIQ3TEAdP7DN1cGAcNbMSUCCCAQk0AMA4AgWwD6LQR3/vcoQp0Skep8uU5AvxbF+wgggECcAmurWKH7nPNjoaHzn6wxMAiIpSVTDgQQQGCwwAxN4vV2yEHAjYOL2fwUdP71NAIGAc23VeaAAAII1CVwizIKOQC4s66KjJvPs/RFNvvX1wg8CNhr3IXB9xBAAAEEWhO4SHMKOQB4oLWa9piR74jkAyFCAuQ47wdlum0Pb95CAAEEEIhH4AwVJWQf5H8YW0++EJDjaEVURyG2LtHMDJdQtj9UrNhM9uSKAAIIIFCDwH015DFJFj6TbKlJMhjnu+78n6fYeZwv852hBGZpqrcPNSUTIYAAAgiEEAg9AHCdZ7ZdcQ8A9mh7pgXOD+MCFzpVRgCBZARiGAAE2QKwSzKLKN2C+jiA5dMtPiVHAAEEshaIYQAQZAvAslkv1ngqt0w8RaEkCCCAAAIdAvd3PA/1NMgAwAeqkZoXwLl5Y+aAAAIIjCPw8Dhfqvk7QXYBnFdzJchuYYHb9NYNC7/NOwgggAACEQjEMAAIsgXgxAjwcy/CbFXQ55iSEEAAAQTiEyh2AHCUlkUM+z/iaxL1lejw+rIiJwQQQACBmgUeqjm/cbJrfReAb4JwjeIzioPGKTHfGShwrKY4fuBUTIAAAgggMKzACprQp7HXldwXhk6rqgAr1VgID2qGOrvBI49fKUJeCjHHeV8g0zUUJAQQQACB8QXW0Vf/U3Gq4g5Fjv1FE3X6p6xmKz6s8KCpb/JR6j9UNFGIEvM8XZZP6KvNBwgggAACgwT8X747ft8sp8R+pM463y7DdyqmTb4l8O8U3nxQ58xLyMs3dDhT4Sv/+drOJAQQQACB8QS8Wf57ihL6jjbr+NFqcUzXSXmLwEbzw8/rSlsro4/VldmY+Xi//JFjfrfX19zx+1iKSxUcUNlLiPcQQACB0QQ+rcm96ZpUv8DrlOWP6s92cI6+8VCbo51e8zp0cDGZAgEEEEAgkMDGmu88Ra/1N+9N7nK9bJet8yjKYdvJ3GEnbHC6xRvMm6wRQAABBCYT+KC+vuRkWfDtaQR8UOVepQ4AuC7/NC2DjxBAAIHAAt5STGpWYOdSBwDcma/ZhkXuCCCAwLgCq+uLG477Zb43tMB2pQ4Apj0fcmg+JkQAAQQQqFuAXbR1i/bOb/FSBwBsAejdIHgXAQQQCC3gg/9IzQvMK3UAwBaA5hsXc0AAAQTGEfAFa64c54t8ZySBM0MMADy6e2SkYtY/MVsA6jclRwQQQKAugZ/UlRH59BX48XQXAur7rRo+uFt5hOyEb9b8uUZ/DQuSLBBAAIEGBJ6sPM9RcMZWA7jK8irF/wqxBcDVCX0tgJCDD9efhAACCCDQX+AyfbRf/4/5ZAIBX+bfVwIc6k6BE8yn71e9fyf01ZxiuP1jXyA+QAABBBBY5HAZhO4rcpv/PqHblW+TGxp15dAIzB8BBBBAYFoBb6X+tiJ0f5HL/N87rXZLH54ewQJdv6W6MhsEEEAAgfEFGATUMwCKovN3M5itCD2ieooLQkIAAQQQiF6AQcBkfWbPzr/UgwDd2jkQMPrfPAVEAAEEHhN4VH/3VhyBx8gC79M3vtTrW6EGAL7QQ+jEaYChlwDzRwABBIYXYBAwvFU1Zd/O3xOEGgD4XsSh06zQBWD+CCCAAAIjCTAIGJ5r2s7f2YQaAFw3fB0am3JWYzmTMQIIIIBAUwIMAgbLDuz8B2fR3BS7K+vQBwEe21z1yBkBBBBAoGEB/wP7bUXoviS2+fc84K/hZTFS9ltFsND+NlKJmRgBBBBAIDYBBgFTB0DRd/5uQD4AL/SoKYYDEWP7MVEeBBBAIDUBBgGP96dJdP5uXL4Jke8KGHoQwG2BvTRICCCAQNoCpQ8Ckun8q2Z2pZ6EHgBsWRWGRwQQQACBpAVKHQQk1/m7lZ2sCD0AeGnSzZ3CI4AAAgh0CpQ2CJio8zdWqMS1AELJM18EEEAgT4GSThGc+FS/kAOAGK4FsEGevwFqhQACCBQrUMIgYOLO360j5ACALQDF/j6pOAIIINCoQM6DgFo6/0b1h8j8FZom9DEAZw5RTiZBAAEEEEhTILdjAiba5x/TItxahQk9ALhXZQi5FSSm5UFZEEAAgRwFchkEZNP5u5GtqQg9APD8N3FhSAgggAAC2QqkPgjIqvN3K4vlYkCvy7bJUzEEEEAAgUog1UFAdp1/tUDO0ZPQWwE+WxWGRwQQQACBrAVSGwRk2/m7lR2pCD0A+EPWzZ3KIYAAAgh0CqQyCMi68/cCeb8i9ADgls6WwXMEEEAAgewFYh8EZN/5u4Xtqgg9APD813NhSAgggAACxQjEOggoovN3K1tdEcMA4GXFNHkqigACCCBQCcQ2CCim868WwD/1JPQg4MCqMDwigAACCBQlEMsgoLjO363s94rQA4DjimruVBYBBBBAoFMg9CCgyM7fC+BQRegBwDWdLYHnCCCAAALFCYQaBBTb+buF7akIPQDw/FdxYUgIIIAAAsUKtD0IKLrzdyvbUhHDAGCXYps8FUcAAQQQqATaGgQU3/kbfAnFg4rQg4BPujAkBBBAAIHiBZoeBND5dzSxc/U89ADgtI7y8BQBBBBAoGyBpgYBdP5d7epIvQ49AHhYZVipq1y8RAABBBAoV6DuQQCdf4+29AG9F3oA4Pm/okfZeAsBBBBAoFyBugYBdP592lAslwQ+rE/5eBsBBBBAoFyBSQcBdP7TtB1ven9EEXorwMXTlJGPEEAAAQTKFRh3EEDnP0SbOUPThB4AeP7rDlFWJkEAAQQQKE9gUVV5X8U9ikH91fWaZjcFaQiBz2maQaBtfL7XEGVlEgQQQACBcgU2UNV/o/DB49390gN675uKFRWkIQVepOm6IUO8PnrI8jIZAggggEDZAsuo+tsrvFXgrYqnKXxtG9KIAstp+ocUITr9znneOGK5mRwBBBBAAIHkBHxQQyzpXhXExwGETmuqAFuELgTzRwABBBBAoEmBmAYArudJTVZ2hLy5L8AIWEyKAAIIIJCeAAOA3suMIzd7u/AuAggggAACjQgsrVznKTr3yYd47iM7V2ukhmSKAAIIIIBABAKxbQG4XyanRuCyuMrwygjKQREQQAABBBBoRCC2AYArGctxAK9tRJxMEUAAAQQQQKCnwE56N8Rm/+55+tLEa/QsIW8igAACCCCQuECMWwC8C8C7AkIn2+wRuhDMHwEEEEAAgSYEYhwAPKiK/qWJyo6R52vG+A5fQQABBBBAIHqBGAcARjsxErkdVY61IykLxUAAAQQQQKA2gVgHAL7JQgyJ3QAxLAXKgAACCCBQlMBlqm33gXkhXs8pSp3KIoAAAggUIRDrFgDj/ziSJbCDyrFuJGWhGAgggAACCNQiwABgMOOimuTVgydjCgQQQAABBBCoS+ByZRRis3/3PGO4S2FdpuSDAAIIIIDAIjFvAfDiiWU3wNYqi4OEAAIIIIAAAi0IPEPz6P5vPNTrI1qoL7NAAAEEEEAAgfkCsewG8NUJV2WpIIAAAgggkIOA73oXe/KFeHxBntBphgpwqyKWqxSG9mD+CCCAAAIINCqwlXIPtdm/e75XqCyxHzfR6MIgcwQQQAABBNoUcMfb3RmHev3iNivOvBBAAAEEEGhCIJX/Zn/SROXHzHPfMb/H1xBAAAEEEEBgRAGfghfqP/7u+T6isjxxxPIzOQIIIIAAAgiMKXClvtfdGYd6feiYdeBrCCCAAAIIIDCiwOc0fagOv3u+t6ksM0csP5MjgAACCCCAwBgCm+o73R1xyNd7jVEHvoIAAggggAACYwicqO+E7PQ7533WGOXnKwgggAACCCAwhoDvytfZCYd+zimBYyxEvoIAAggggMCoAkvoCzcqQnf81fxPG7UCTI8AAggggEAMAilcCrjT6VG9WEmxU+ebAZ+vo3l7EOD7FZAQQAABBBBAoEGB9ZT3w4rqv/DQj39tsK5kjQACCCCAAAIdAsfpeeiOv3P+z+8oG08RQAABBBBAoCGBFyjfzg449PNTGqon2SKAAAIIIIBAh8Cieu797qE7/s7579JRPp4igAACCCAQtUBqBwF2Yi6lF7t2vhH4ue8PcETgMjB7BBBAAAEEshdYVTV8QNH5X3jo58/LXp0KIoAAAgggEIHAUSpD6E6/c/5/isCEIiCAAAIIIJC9wPaqYWcHHMPz52SvTgURQAABBBCIQOAclSGGjr8qw5wITCgCAggggAAC0wqkfBBgVbEH9WT36kUEj+urDJcoLoigLBQBAQQQQACBbAV8f4CrFdV/4DE8XqvyLKMgIYAAAgggEKVADlsAfH+A+xW7RSS8osryiGJ2RGWiKAgggAACCGQnsKRq5P+6Y/jvvyrDXJVng+ykqRACCCCAQBYCOWwB8ILwf9u+JsBL/CKS5F0T6yp+HEl5KAYCCCCAAAJZCvjKgNcrqv/AY3l8TpbaVAoBBBBAAIGIBPZTWWLp+KtynKsy5bKlJaJFTVEQQAABBBBYIDBTT29QVJ1vLI/vWlBEniGAAAIIIIBAEwLvUaaxdPxVOW5VmVZuorLkiQACCCCAAAKPCyythxsVVecby+OXWUAIIIAAAggg0KzAAco+lo6/KsdDKtMWzVab3BFAAAEEEChbwFfhu0lRdb6xPJ6uMs0oe9FQewQQQACBGARyPTrd/20vqtg1BuSOMqyj574+wAkd7/EUAQQQQAABBGoUWFZ53aKI5b//qhy+aNGza6wnWSGAAAIIIIBAl8AH9brqeGN6vE7l4qyAroXFSwQQQAABBOoS8NUBr1DE1PlXZeESwXUtZfJBAAEEEECgh8Dueq/qdGN7fGuP8vIWAggggAACCNQkcLzyia3zd3nuVTy5pjqSDQIIIIAAAgh0CWyu1z4zIMZBwBkql88MICGAAAIIINCaQK6nAXYD+myAJyi27f4ggtdrqwxLKv4YQVkoAgIIIIAAAtkJ+Kh7X5M/xq0APjXwudmJUyEEEEAAAQQiEXinyhHjAMBlul6xSiROFAMBBBBAAIGsBLzL4xxFrIOAn2alTWUQQAABBKIV8OVyS0vPVoVnR1zpd6hs34y4fBQNAQQQmFTA92vxMVk7KmYp/HpZxX2KS+eH751ymYKEQK0Cxyi3WLcC+AewSa21JTMEEEAgDoFdVIxfK4Y9K+s0TftuBVdOFQKpHoENlM1cRayDgL+rbCvUU1VyQQABBIIL7KwSnK8Yd53rA7jfpihxq7WqTapb4CBlOG5jbON7v1X5SjlNs+5lS34IIBCHgE9xPlTxqKKO9eYc5bOhgoTARALe53Stoo5G2VQeX5mohnwZAQQQCCfgrZinKupeP96gPDcPVy3mnIvAHqpI3Y2z7vz2yQWbeiCAQDECM1XTkxR1rw+r/LxLYOtiNKloYwJHKueqUcX4+LDK9/zGak/GCCCAQL0Ciym74xRNr0997ZRV6y06uZUmsLwqHOstg6sf0J0q42alLRjqiwACSQp8UqWu1l1NP/4sSSEKHZXAdirNsKelNN2g++XvQYrvZ0BCAAEEYhV4uQpW1wF//daF3e/vGSsG5UpH4BMqanfDiu31n1VGH1VLQgABBGIT8PVL7lK0vd70adOcHhhba0isPD7lzh1s24131Pl9NzFXiosAAvkLLKcquiMedX1W1/Qvzp+YGjYtsIFm4P3tdTXKpvL5SNMQ5I8AAggMKTBD0/1G0dT6bph8fzlkWZkMgWkFXq9Ph2lwIafxPrZXTlsLPkQAAQTaEThcswm5PvS8vevBZx+QEJhYIPZTA93g71NsNXFNyQABBBAYX8BbI0N3/tX8nzp+NfgmAgsEUjg10I3eV8RaZ0GxeYYAAgi0JvAGzantI/6rzr7X49taqzkzyl4ghVMD/SO4SLFG9kuDCiKAQEwCz1Zh5il6dcSh3jsgJqAUysI+k/5LydewPrj/x9F8sqlKcpKCQUA0i4SCIJC1gC9KdqwitlOSfX8XEgK1CaRyaqBH3D4FZ/Xaak5GCCCAwMIC/kfjKkWo//Knm+8hCxeXdxCYTGADfT2FUwP9w7hAwSBgsuXNtxFAoLfAynr7bMV0nXDIz97eu9i8i8BkAimcGlj98DwIWG2y6vJtBBBAYIqAO/+zFNV6JsbHnaaUmBcI1CiQwqmB1Y/yfNWbQUCNC5+sEChYYCXV/UxFtX6J9ZGtnwU30qarnsqpgdWP8zyBcPOgplsF+SOQt4A7/zMU1Xol1sdT8l4M1C4Gga1ViLmKWH8E3eU6V2VlEBBDy6EMCKQnkErn7/XeO9LjpcQpCrxahY7p4hfdnX7363NU3lVThKbMCCAQTGBFzfl0Rff6JMbX96mcHqyQEGhF4OOaS4w/hH5l+pvKu0orMswEAQRSF3Dnf5qi3/oktvc/ljo45U9P4KiEfiD+wTIISK+NUWIE2hbwgXQp7POvBiGXqrxLtY3E/BBwo/OBJ1VDTOHR5/ByTABtFwEEegk8SW9erkhhXeYyelfsLgoSAkEEfKrdVYpUfjAu5xUKX8qThAACCFQC2+rJzYqU1mUfrQrPIwKhBLbQjH0v6pR+OHeqvIycQ7UY5otAXAK7qTg+kC6lddiP4iKkNCULvEiVf1iR0g/oIZX330peaNQdAQQeO30utXWXd2Vy4x8ab1QC+6s0KQ0AqrJ+QeXmrpBRNSUKg0ArAr55TrUeSOXxJpV5/VZ0mAkCIwp8TdOn8kPqLOcvVO7lRqwrkyOAQJoCM1TsIxSd64AUnj+oMv9LmuSUugQB/7D+oEjhx9RdRl8waN0SFhJ1RKBggTVV9z8run//Kbzman8FN9xUqu4rUl2U6A/sHyq3L3dMQgCB/ASepSr5N55CZ99dRm9dJSGQhMBGKuWtiu5GnMJr3+vgVUkoU0gEEBhW4N2a0JvQU1gHdZdxtsq9hIKEQDICvjf1PEV3Y07htS+w8eFkpCkoAgj0E/DR8qldtbRzHXmVys/Fy/otXd6PWmAvla6zMaf2/AiVf8mohSkcAgj0E3iiPvAdQVNb71TlvV1lf0q/yvE+AikI/G8VsmrQKT7OUfk3SAGaMiKAwP8XeLGe3aFIcZ3jMt+j8NUJSQgkL/AfqkGqP0SX21c63FNBQgCBuAV8j5LPKbwbL9V1zgMq+84KEgLZCBykmqT6g6zK/QPVgftuZ9MkqUhmAluqPucpqt9rio++QunumS0XqoPAYwI5DAKuVU2ew/JEAIFoBHwlzw8pUj3ouBqoeKsFWxqjaVYUpAmBg5Vp1eBTfXxEdfisggMEm2gh5InA8AIbatKTFamuSzrLvc/w1WZKBNIVOERF72z4qT4/W/XYLN3FQMkRSFrgbSr93YpU1x+d5ebWvkk3RQo/qkAugwBfOGjfUSvP9AggMLbA6vrmzxWdHWjKz33QIgmB4gT+j2qc8g+3s+y/Vl3WKG4JUmEE2hNYVLN6i+IWRedvL+Xnh7fHx5wQiE8gp0HAzeJ9aXzElAiB5AV8QZw/K1Lu7LvL/l3VxwcwkhAoWuCTqn33jyPl1x7Vr1j0EqXyCNQjsKyyOVTh0+NSXid0l/0rqo+3aJAQQEACuQ0CblKdfJASI3yaNwLjCbxCX7tW0d15pv7axz+REECgS+BTep36j7u7/GeoTtt31ZOXCCDQX2BDfeRjarp/Szm8PqB/tfkEAQQ+LYIcfuiddfAFPo5UrMXiRQCBvgJL65OPK3xmTefvJ4fnD6tO3iJIQgCBAQI5DgK8EvMNPv5dwQWEBjQAPi5KYHHVdm/FDYocOvvuOsxTvfZQkBBAYEiB92k6X3Gv+8eUw+vLVK/dhnRgMgRyFvB17y9U5PC77lWH+1S3F+S8AKkbAk0JuJP0f829flg5vPcb1W3jpvDIF4GIBXZQ2Xyr7Rx+x/3qcKfq96yIlwFFQyB6gaeqhDkeCVytNB5U/Xya0/LRLwkKiMDkAr509rGKqv3n+uizgJ42ORc5IIDAmiI4XZHrysL1ulGxl4LTBoVAyk5gXdXoGwofDJfz79h1u0DxRAUJAQRqEvARwj9W5L7yuER19NHCHCgoBFLyAk9WDb6l8IFwuf92XT/fo4CteUIgIVC3gK+cldOlg6dbIV6vuvpAyGXrRiQ/BFoQ8ObvHylyPZC312/XFzPj6n4tNC5mUbbAv6r6pfxHcavqeqBilbIXObVPRGBHldMHt/bqIHN9z9cteF0iy4diIpCFgFc0tyhyXal018tnQ3xesY6ChEBsAi9SgU5WdLfb3F9fpzpvFdvCoDwIlCDgA20uUuS+kumsn7d8fFPhfaskBEIKLKGZ+z/fvyk622gpz/+ievsAZRICCAQSWEnzPV5Rykqnqqf3rXof69MVJATaFFhbM/sPxT8UVXss7fEI1X0pBQkBBAILzND8v64obSVU1fe3qvuzAy8DZp+/gNvYMYqHFFXbK+3RpzH64FwSAghEJvBelaeko467V74+hfBjivUiWy4UJ12B5VT0fRQ+t727vZX2+gYZPE9BQgCBSAVeqHLdpCht5dRZXw+C/qjYU7GMgoTAqAKb6QuHKe5WdLatUp/7/P5VFSQEEIhcYHWV71eKUldWnfX2Cvz/KXZScI6yEEh9Bbwr7VWKExWdbajk5z7Fz1tASAggkJiAf7j+AZe8Auus+xWyOFCxoYKEQCXgI9k/ofDFpzrbS+nPz5PHFgoSAggkKuBNmWcrSl+Zddb/UXnMVrxF4X28pPIEfAS7d5f9QOEbUnW2D54vssiXZTJTQUIAgcQFfF39zym8b5yV21QD36/8SMWLFBwvIISMk/dhv0nhe2rco+C3sLDBzXJ5iYKEAAKZCTxX9fGVu1jx9TbwRYa8//cjiq0UiylIaQv4glHvV/xJ4VPYaPv9Df4gHy7sIwQSArkKrKyKHaNgRTjYwPch+JFib8X6ClL8Ah607aD4jOJCBe18sMEDcvIgaVEFCQEEChB4s+rIKU6DV46dHYivM+BTw16mWEFBikPAu25ervi2wpuwO5cZz6f3mC2vTRQkBBAoTOCJqq+v581KcnQDXw1ujuJAxfaKxRWk9gRmaVZvV/xScb+CNjyawW0ye6uC//qFUGpi4Ze65BfU2x3XxxU+DYpObIHLqM/u0hdOUpygOEfhK8fdqSBNLuDdL1srfFyGw89XVZDGE/i+vubL+XprCalgAQYABS/8rqpvp9ffU3irAKkeAR9weX5XXKzXPu2M1FtgPb1ddfJ+dKzWe1LeHVHgSk3/LoUP9iMhwOYf2sAUgeX16hDFvgpfFY1Uv4CPRL9U0T0wuFrveTN2SWkdVbb6z7569FUsSfUKuM19XnGQwrtLSAg8JsAWABpCL4HN9eaXFLv2+pD3GhG4V7leoKgGBn5+jeIWxT2KFNNKKvTaCnf0fqyeb6jn/s9+DQWpWYHTlP07FL6qHwmBKQIMAKZw8KJLwEe7f0GxUdf7vGxXwKdpeSDgfbadj53POz/zxY2aTEsr86pDrzr16nVnZ79Mk4Ug72kFfIbPxxRfUzw67ZR8WKwAA4BiF/3QFfclU33AkFcmXDZ3aLagE3ozbzUgqLYg+Lfugzx9nnxnjPKe28JaCl9LghSnwEMq1uGKgxVe9iQEEEBgYgGv+L+r8H8TnHKFAW0gvjbwE/02feVDEgJDCbAFYCgmJuoQ2FbPfaOQbTre4ykCCIQT8LU8PqD4a7giMGcEEChFwAPHNytuVPCfIAa0gTBt4BL9/l6pICEwloD3/5EQGEfgXH3pGwrvT/bWANqSEEgItCDg4zs+pHib4u8tzI9ZIIAAAn0FnqRPfqHgP0EMaAPNtQGf3XGIwtfrICGAAAJRCTxfpfF/JHQCGNAG6msDPqvjqwqfaklCAAEEohXwLoFXK85S0AlgQBsYvw34AlCHKnwGDgkBBBBISsBbBE5S0AlgQBsYvg3crt/MQYpVFCQEEEAgaQHfaOjnCq4hMHwnQIdZntU/9Rv5dwX7+IVAQgCBvAS2UHWOUvhqZXRwGNAGHm8D1+r38G6FL7FMQgABBLIWmKXaHabwwU10AhiU2gYuVft/q2IJBQkBBBAoSmB11fZTijsVpXYC1Lu8ZX+G2vtrFVw7QwgkBBAoW2AFVf/DCu8DpUPEIMc28Ija9k8VOypICCCAAAJdAjP1eh/FlYocOwHqVN5yvVtt+YuKDRUkBBBAAIEBAjP0+UsV/o9pnoKOE4PU2sDVarcHKLx1i4QAAgggMIaAz4XeV+H9pql1ApS3vGXmO/PtoWD/vhBIcQtwO+C4lw+lmyqwuV7updhTwdXRhECKQuAuleIYxbcUp0dRIgqBAAIIZCrg/65eqPihglMJy/svO4YtKz6o73eK1ys4f18IpPQE2AKQ3jKjxFMFVtJLn1L1ZsX2Uz/iFQK1C1ysHL+jOFpxg4KEQLICDACSXXQUvIfAxnrPA4E3Kdbr8TlvITCOwB36krc2fUfBJn4hkBBAAIFYBXxHwl0URynuVcSwyZgypLUc3G58ForvbLmUgoRAdgJsAchukVKhLgGvvH3xlRfMjy27PuclApXALXryS8VxiuMVDyhICGQrwAAg20VLxfoI+OwB36bYA4JdFU9QkMoV8EWn3OE7TlH4jpUkBIoQYABQxGKmkn0EvKvgGQoPBnxWwXYKX4SIlLfA2ape1emfn3dVqR0C/QUYAPS34ZPyBHzVtp0V1e6CWeURZFnja1Srk+bHiXq8PstaUikERhRgADAiGJMXJeCzCqrBwLP1fLmiap9uZd3Bz1ZUnf5V6VaFkiPQnAADgOZsyTkvAe8u8IDAuwy2mv/4dD2uqCCFFbhRs5+tqDr8y8MWh7kjkIYAA4A0lhOljFPAv5+NFB4UVAMDDwpWVZCaEbhJ2f6tI7w//4pmZkWuCOQtwAAg7+VL7cIIbKDZVgOCanCwRpiiJD1Xb7rv7Oz9/B9J14jCIxCRAAOAiBYGRclaYB3VzoMBX4dglmJ9hQcKfiz5WvK+l8OV88P/yTv+rnBnf6eChAACDQkwAGgIlmwRGEFgNU3rgUDnoKAaHPjRn6ecfIEdd+zu6KtOvnru/ff/rSAhgEDLAgwAWgZndgiMIeAtBN0DhHX1ns9K8GfLdETnaz+fqag7+fa37tRvnv/o59MFV9QTEAmB2AQYAMS2RCgPAvUK+OyFalBQPVYDhmqA8LCmeVAxr+Ox83n3Z/zHLigSAggggAACCCCAAAIIIIAAAggggAACCCCAAAIIIIAAAggggAACCCCAAAIIIIAAAggggAACCCCAAAIIIIAAAggggAACCCCAAAIIIIAAAggggAACCCCAAAIIIIAAAggggAACCCCAAAIIIIAAAggggAACCCCAAAIIIIAAAggggAACCCCAAAIIIIAAAggggAACCCCAAAIIIIAAAggggAACCCCAAAIIIIAAAggggAACCCCAAAIIIIAAAggggAACCCCAAAIIIIAAAggggAACCCCAAAIIIIAAAggggAACCCCAAAIIIIAAAggggAACCCCAAAIIIIAAAggggAACCCCAAAIIIIAAAggggAACCCCAAAIIIIAAAggggAACCCCAwPQC/wOdweLKnRshNgAAAABJRU5ErkJggg==;" vertex="1" parent="7OyRO9MHelykM9Re2ESv-22">
          <mxGeometry x="720" y="70" width="80" height="80" as="geometry" />
        </mxCell>
        <mxCell id="7OyRO9MHelykM9Re2ESv-88" value="Azure&amp;nbsp;Blob Storage" style="rounded=0;whiteSpace=wrap;html=1;fontSize=12;fontColor=default;" vertex="1" parent="1">
          <mxGeometry x="550" y="750" width="120" height="60" as="geometry" />
        </mxCell>
        <mxCell id="7OyRO9MHelykM9Re2ESv-89" style="edgeStyle=orthogonalEdgeStyle;rounded=0;orthogonalLoop=1;jettySize=auto;html=1;fontSize=12;fontColor=default;dashed=1;exitX=0.5;exitY=1;exitDx=0;exitDy=0;entryX=0.5;entryY=0;entryDx=0;entryDy=0;" edge="1" parent="1" source="7OyRO9MHelykM9Re2ESv-10" target="7OyRO9MHelykM9Re2ESv-88">
          <mxGeometry relative="1" as="geometry" />
        </mxCell>
        <mxCell id="7OyRO9MHelykM9Re2ESv-90" value="Sendgrid" style="rounded=0;whiteSpace=wrap;html=1;fontSize=12;fontColor=default;" vertex="1" parent="1">
          <mxGeometry x="340" y="750" width="120" height="60" as="geometry" />
        </mxCell>
        <mxCell id="7OyRO9MHelykM9Re2ESv-91" style="edgeStyle=orthogonalEdgeStyle;rounded=0;orthogonalLoop=1;jettySize=auto;html=1;exitX=0.5;exitY=1;exitDx=0;exitDy=0;entryX=0.5;entryY=0;entryDx=0;entryDy=0;dashed=1;fontSize=12;fontColor=default;" edge="1" parent="1" source="7OyRO9MHelykM9Re2ESv-8" target="7OyRO9MHelykM9Re2ESv-90">
          <mxGeometry relative="1" as="geometry" />
        </mxCell>
        <mxCell id="7OyRO9MHelykM9Re2ESv-92" value="Azure&lt;br&gt;MS SQL" style="strokeWidth=2;html=1;shape=mxgraph.flowchart.database;whiteSpace=wrap;fontSize=12;fontColor=default;" vertex="1" parent="1">
          <mxGeometry x="180" y="720" width="70" height="90" as="geometry" />
        </mxCell>
        <mxCell id="7OyRO9MHelykM9Re2ESv-95" style="edgeStyle=orthogonalEdgeStyle;rounded=0;orthogonalLoop=1;jettySize=auto;html=1;entryX=0.5;entryY=0;entryDx=0;entryDy=0;dashed=1;dashPattern=1 2;fontSize=12;fontColor=default;exitX=0.5;exitY=1;exitDx=0;exitDy=0;" edge="1" parent="1" source="7OyRO9MHelykM9Re2ESv-94" target="7OyRO9MHelykM9Re2ESv-86">
          <mxGeometry relative="1" as="geometry" />
        </mxCell>
        <mxCell id="7OyRO9MHelykM9Re2ESv-94" value="Gitlab CI/CD" style="whiteSpace=wrap;html=1;aspect=fixed;fontSize=12;" vertex="1" parent="1">
          <mxGeometry x="760" y="130" width="80" height="80" as="geometry" />
        </mxCell>
      </root>
    </mxGraphModel>
  </diagram>
</mxfile>
